<svg width="6" height="46" viewBox="0 0 6 46" fill="none" xmlns="http://www.w3.org/2000/svg">
<path d="M3.07031 40.4242C1.59755 40.4242 0.403644 41.6181 0.403644 43.0908C0.403644 44.5636 1.59755 45.7575 3.07031 45.7575C4.54307 45.7575 5.73698 44.5636 5.73698 43.0908C5.73698 41.6181 4.54307 40.4242 3.07031 40.4242ZM2.57031 1.14165C2.57031 1.41779 2.79417 1.64165 3.07031 1.64165C3.34645 1.64165 3.57031 1.41779 3.57031 1.14165L2.57031 1.14165ZM3.57031 2.94908C3.57031 2.67294 3.34645 2.44908 3.07031 2.44908C2.79417 2.44908 2.57031 2.67294 2.57031 2.94908L3.57031 2.94908ZM2.57031 5.05074C2.57031 5.32688 2.79417 5.55074 3.07031 5.55074C3.34645 5.55074 3.57031 5.32688 3.57031 5.05074L2.57031 5.05074ZM3.57031 6.85817C3.57031 6.58203 3.34645 6.35817 3.07031 6.35817C2.79417 6.35817 2.57031 6.58203 2.57031 6.85817L3.57031 6.85817ZM2.57031 8.95983C2.57031 9.23598 2.79417 9.45983 3.07031 9.45983C3.34645 9.45983 3.57031 9.23598 3.57031 8.95983L2.57031 8.95983ZM3.57031 10.7673C3.57031 10.4911 3.34645 10.2673 3.07031 10.2673C2.79417 10.2673 2.57031 10.4911 2.57031 10.7673L3.57031 10.7673ZM2.57031 12.8689C2.57031 13.1451 2.79417 13.3689 3.07031 13.3689C3.34645 13.3689 3.57031 13.1451 3.57031 12.8689L2.57031 12.8689ZM3.57031 14.6764C3.57031 14.4002 3.34645 14.1764 3.07031 14.1764C2.79417 14.1764 2.57031 14.4002 2.57031 14.6764L3.57031 14.6764ZM2.57031 16.778C2.57031 17.0542 2.79417 17.278 3.07031 17.278C3.34645 17.278 3.57031 17.0542 3.57031 16.778L2.57031 16.778ZM3.57031 18.5854C3.57031 18.3093 3.34645 18.0854 3.07031 18.0854C2.79417 18.0854 2.57031 18.3093 2.57031 18.5854L3.57031 18.5854ZM2.57031 20.6871C2.57031 20.9632 2.79417 21.1871 3.07031 21.1871C3.34645 21.1871 3.57031 20.9632 3.57031 20.6871L2.57031 20.6871ZM3.57031 22.4945C3.57031 22.2184 3.34645 21.9945 3.07031 21.9945C2.79417 21.9945 2.57031 22.2184 2.57031 22.4945L3.57031 22.4945ZM2.57031 24.5962C2.57031 24.8723 2.79417 25.0962 3.07031 25.0962C3.34645 25.0962 3.57031 24.8723 3.57031 24.5962L2.57031 24.5962ZM3.57031 26.4036C3.57031 26.1275 3.34645 25.9036 3.07031 25.9036C2.79417 25.9036 2.57031 26.1275 2.57031 26.4036L3.57031 26.4036ZM2.57031 28.5053C2.57031 28.7814 2.79417 29.0053 3.07031 29.0053C3.34645 29.0053 3.57031 28.7814 3.57031 28.5053L2.57031 28.5053ZM3.57031 30.3127C3.57031 30.0366 3.34645 29.8127 3.07031 29.8127C2.79417 29.8127 2.57031 30.0366 2.57031 30.3127L3.57031 30.3127ZM2.57031 32.4144C2.57031 32.6905 2.79417 32.9144 3.07031 32.9144C3.34645 32.9144 3.57031 32.6905 3.57031 32.4144L2.57031 32.4144ZM3.57031 34.2218C3.57031 33.9457 3.34645 33.7218 3.07031 33.7218C2.79417 33.7218 2.57031 33.9457 2.57031 34.2218L3.57031 34.2218ZM2.57031 36.3235C2.57031 36.5996 2.79417 36.8235 3.07031 36.8235C3.34645 36.8235 3.57031 36.5996 3.57031 36.3235L2.57031 36.3235ZM3.57031 38.1309C3.57031 37.8548 3.34645 37.6309 3.07031 37.6309C2.79417 37.6309 2.57031 37.8548 2.57031 38.1309L3.57031 38.1309ZM2.57031 40.2326C2.57031 40.5087 2.79417 40.7326 3.07031 40.7326C3.34645 40.7326 3.57031 40.5087 3.57031 40.2326L2.57031 40.2326ZM3.57031 42.04C3.57031 41.7638 3.34645 41.54 3.07031 41.54C2.79417 41.54 2.57031 41.7638 2.57031 42.04L3.57031 42.04ZM2.57031 0.0908203L2.57031 1.14165L3.57031 1.14165L3.57031 0.0908203L2.57031 0.0908203ZM2.57031 2.94908L2.57031 5.05074L3.57031 5.05074L3.57031 2.94908L2.57031 2.94908ZM2.57031 6.85817L2.57031 8.95983L3.57031 8.95983L3.57031 6.85817L2.57031 6.85817ZM2.57031 10.7673L2.57031 12.8689L3.57031 12.8689L3.57031 10.7673L2.57031 10.7673ZM2.57031 14.6764L2.57031 16.778L3.57031 16.778L3.57031 14.6764L2.57031 14.6764ZM2.57031 18.5854L2.57031 20.6871L3.57031 20.6871L3.57031 18.5854L2.57031 18.5854ZM2.57031 22.4945L2.57031 24.5962L3.57031 24.5962L3.57031 22.4945L2.57031 22.4945ZM2.57031 26.4036L2.57031 28.5053L3.57031 28.5053L3.57031 26.4036L2.57031 26.4036ZM2.57031 30.3127L2.57031 32.4144L3.57031 32.4144L3.57031 30.3127L2.57031 30.3127ZM2.57031 34.2218L2.57031 36.3235L3.57031 36.3235L3.57031 34.2218L2.57031 34.2218ZM2.57031 38.1309L2.57031 40.2326L3.57031 40.2326L3.57031 38.1309L2.57031 38.1309ZM2.57031 42.04L2.57031 43.0908L3.57031 43.0908L3.57031 42.04L2.57031 42.04Z" fill="url(#paint0_linear_171_6896)"/>
<defs>
<linearGradient id="paint0_linear_171_6896" x1="2.57031" y1="43.0908" x2="2.57031" y2="0.0908203" gradientUnits="userSpaceOnUse">
<stop offset="0.0488896" stop-color="white"/>
<stop offset="0.922791" stop-color="white" stop-opacity="0"/>
</linearGradient>
</defs>
</svg>
