<svg width="24" height="24" viewBox="0 0 24 24" fill="none" xmlns="http://www.w3.org/2000/svg">
<g clip-path="url(#clip0_171_6944)">
<rect x="0.925781" y="11.29" width="16.3635" height="16.3635" rx="8.18177" transform="rotate(-40 0.925781 11.29)" fill="#0038A8"/>
<g clip-path="url(#clip1_171_6944)">
<path d="M10.2587 11.2217C10.0314 10.6337 10.6513 10.09 11.1967 10.3639L11.2474 10.3926L11.9753 10.8321C12.1422 10.9329 12.3288 10.9967 12.5224 11.0193C12.7161 11.0419 12.9124 11.0227 13.098 10.9629L13.1724 10.9365L13.9653 10.6299C14.5534 10.4026 15.0971 11.0224 14.8234 11.5676L14.7948 11.6183L14.3553 12.3462C14.2544 12.5131 14.1905 12.6997 14.1678 12.8935C14.1452 13.0872 14.1644 13.2835 14.2241 13.4692L14.2503 13.5433L14.5572 14.3365C14.7845 14.9246 14.1646 15.4683 13.6197 15.1943L13.5685 15.1661L12.8408 14.7264C12.6739 14.6255 12.4873 14.5616 12.2936 14.539C12.0999 14.5164 11.9036 14.5356 11.7179 14.5953L11.6438 14.6215L10.8508 14.9281C10.2625 15.1557 9.71881 14.5358 9.993 13.9907L10.0212 13.9394L10.4609 13.2118C10.5617 13.0449 10.6256 12.8583 10.6481 12.6646C10.6707 12.471 10.6515 12.2747 10.5918 12.0891L10.5656 12.0149L10.2587 11.2217ZM12.0867 8.15342C12.1356 8.11243 12.1949 8.08596 12.2581 8.07703C12.3212 8.06809 12.3856 8.07705 12.4439 8.10289L12.4821 8.12292L12.7983 8.31417L13.1432 8.18052C13.2062 8.15607 13.2749 8.15085 13.3408 8.16552C13.4067 8.18019 13.4667 8.21409 13.5133 8.26293C13.5599 8.31176 13.591 8.37333 13.6026 8.43984C13.6141 8.50634 13.6057 8.57478 13.5784 8.63649L13.5581 8.67488L13.3668 8.99111L13.5005 9.33601C13.5249 9.39893 13.53 9.46769 13.5153 9.53357C13.5006 9.59944 13.4667 9.65947 13.4178 9.70604C13.369 9.75261 13.3074 9.78363 13.2409 9.79517C13.1744 9.80671 13.106 9.79825 13.0443 9.77086L13.0061 9.75082L12.6899 9.55958L12.345 9.69322C12.2821 9.71767 12.2133 9.72289 12.1474 9.70822C12.0815 9.69355 12.0215 9.65965 11.9749 9.61081C11.9283 9.56198 11.8972 9.50041 11.8856 9.43391C11.8741 9.3674 11.8825 9.29896 11.9099 9.23726L11.9302 9.19886L12.1214 8.88263L11.9878 8.53774C11.9621 8.47136 11.9578 8.39862 11.9755 8.3297C11.9933 8.26077 12.0322 8.19914 12.0867 8.15342Z" fill="white"/>
</g>
</g>
<defs>
<clipPath id="clip0_171_6944">
<rect x="0.925781" y="11.29" width="16.3635" height="16.3635" rx="8.18177" transform="rotate(-40 0.925781 11.29)" fill="white"/>
</clipPath>
<clipPath id="clip1_171_6944">
<rect width="8.18177" height="8.18177" fill="white" transform="translate(6.6875 11.7944) rotate(-40)"/>
</clipPath>
</defs>
</svg>
