<svg width="234" height="209" viewBox="0 0 234 209" fill="none" xmlns="http://www.w3.org/2000/svg">
<mask id="path-1-inside-1_6_11" fill="white">
<path d="M0 0H32.8037V130.668H0V0Z"/>
</mask>
<path d="M0 0H32.8037V130.668H0V0Z" fill="url(#paint0_linear_6_11)"/>
<path d="M32.257 0V130.668H33.3505V0H32.257ZM0.546729 130.668V0H-0.546729V130.668H0.546729Z" fill="url(#paint1_linear_6_11)" fill-opacity="0.5" mask="url(#path-1-inside-1_6_11)"/>
<mask id="path-3-inside-2_6_11" fill="white">
<path d="M50.2988 0H83.1026V174.407H50.2988V0Z"/>
</mask>
<path d="M50.2988 0H83.1026V174.407H50.2988V0Z" fill="url(#paint2_linear_6_11)"/>
<path d="M82.5558 0V174.407H83.6493V0H82.5558ZM50.8456 174.407V0H49.7521V174.407H50.8456Z" fill="url(#paint3_linear_6_11)" fill-opacity="0.5" mask="url(#path-3-inside-2_6_11)"/>
<mask id="path-5-inside-3_6_11" fill="white">
<path d="M100.598 0H133.401V208.85H100.598V0Z"/>
</mask>
<path d="M100.598 0H133.401V208.85H100.598V0Z" fill="url(#paint4_linear_6_11)"/>
<path d="M132.855 0V208.85H133.948V0H132.855ZM101.144 208.85V0H100.051V208.85H101.144Z" fill="url(#paint5_linear_6_11)" fill-opacity="0.5" mask="url(#path-5-inside-3_6_11)"/>
<mask id="path-7-inside-4_6_11" fill="white">
<path d="M150.896 0H183.7V174.407H150.896V0Z"/>
</mask>
<path d="M150.896 0H183.7V174.407H150.896V0Z" fill="url(#paint6_linear_6_11)"/>
<path d="M183.153 0V174.407H184.247V0H183.153ZM151.443 174.407V0H150.35V174.407H151.443Z" fill="url(#paint7_linear_6_11)" fill-opacity="0.5" mask="url(#path-7-inside-4_6_11)"/>
<mask id="path-9-inside-5_6_11" fill="white">
<path d="M201.197 0H234.001V130.668H201.197V0Z"/>
</mask>
<path d="M201.197 0H234.001V130.668H201.197V0Z" fill="url(#paint8_linear_6_11)"/>
<path d="M233.454 0V130.668H234.548V0H233.454ZM201.744 130.668V0H200.651V130.668H201.744Z" fill="url(#paint9_linear_6_11)" fill-opacity="0.5" mask="url(#path-9-inside-5_6_11)"/>
<defs>
<linearGradient id="paint0_linear_6_11" x1="16.4019" y1="0" x2="16.4019" y2="130.668" gradientUnits="userSpaceOnUse">
<stop stop-color="white" stop-opacity="0.04"/>
<stop offset="0.687845" stop-color="white" stop-opacity="0"/>
</linearGradient>
<linearGradient id="paint1_linear_6_11" x1="16.4019" y1="0" x2="16.4019" y2="130.668" gradientUnits="userSpaceOnUse">
<stop stop-color="white" stop-opacity="0.1"/>
<stop offset="0.690172" stop-color="white" stop-opacity="0"/>
</linearGradient>
<linearGradient id="paint2_linear_6_11" x1="66.7007" y1="0" x2="66.7007" y2="174.407" gradientUnits="userSpaceOnUse">
<stop stop-color="white" stop-opacity="0.04"/>
<stop offset="0.787164" stop-color="white" stop-opacity="0"/>
</linearGradient>
<linearGradient id="paint3_linear_6_11" x1="66.7007" y1="0" x2="66.7007" y2="174.407" gradientUnits="userSpaceOnUse">
<stop stop-color="white" stop-opacity="0.1"/>
<stop offset="0.76354" stop-color="white" stop-opacity="0"/>
</linearGradient>
<linearGradient id="paint4_linear_6_11" x1="117" y1="0" x2="117" y2="224.514" gradientUnits="userSpaceOnUse">
<stop stop-color="white" stop-opacity="0.04"/>
<stop offset="0.834236" stop-color="white" stop-opacity="0"/>
</linearGradient>
<linearGradient id="paint5_linear_6_11" x1="117" y1="0" x2="117" y2="208.85" gradientUnits="userSpaceOnUse">
<stop stop-color="white" stop-opacity="0.1"/>
<stop offset="0.907109" stop-color="white" stop-opacity="0"/>
</linearGradient>
<linearGradient id="paint6_linear_6_11" x1="167.298" y1="0" x2="167.298" y2="174.407" gradientUnits="userSpaceOnUse">
<stop stop-color="white" stop-opacity="0.04"/>
<stop offset="0.787164" stop-color="white" stop-opacity="0"/>
</linearGradient>
<linearGradient id="paint7_linear_6_11" x1="167.298" y1="0" x2="167.298" y2="174.407" gradientUnits="userSpaceOnUse">
<stop stop-color="white" stop-opacity="0.1"/>
<stop offset="0.76354" stop-color="white" stop-opacity="0"/>
</linearGradient>
<linearGradient id="paint8_linear_6_11" x1="217.599" y1="0" x2="217.599" y2="130.668" gradientUnits="userSpaceOnUse">
<stop stop-color="white" stop-opacity="0.04"/>
<stop offset="0.687845" stop-color="white" stop-opacity="0"/>
</linearGradient>
<linearGradient id="paint9_linear_6_11" x1="217.599" y1="0" x2="217.599" y2="130.668" gradientUnits="userSpaceOnUse">
<stop stop-color="white" stop-opacity="0.1"/>
<stop offset="0.690172" stop-color="white" stop-opacity="0"/>
</linearGradient>
</defs>
</svg>
