<svg width="264" height="187" viewBox="0 0 264 187" fill="none" xmlns="http://www.w3.org/2000/svg">
<mask id="path-1-outside-1_170_115" maskUnits="userSpaceOnUse" x="0" y="0" width="264" height="187" fill="black">
<rect fill="white" width="264" height="187"/>
<path d="M1 13C1 6.37258 6.37258 1 13 1H251C257.627 1 263 6.37258 263 13V187H1V13Z"/>
</mask>
<path d="M1 13C1 6.37258 6.37258 1 13 1H251C257.627 1 263 6.37258 263 13V187H1V13Z" fill="url(#paint0_linear_170_115)" fill-opacity="0.04"/>
<path d="M0 13C0 5.8203 5.8203 0 13 0H251C258.18 0 264 5.8203 264 13H262C262 6.92487 257.075 2 251 2H13C6.92487 2 2 6.92487 2 13H0ZM263 187H1H263ZM0 187V13C0 5.8203 5.8203 0 13 0V2C6.92487 2 2 6.92487 2 13V187H0ZM251 0C258.18 0 264 5.8203 264 13V187H262V13C262 6.92487 257.075 2 251 2V0Z" fill="url(#paint1_linear_170_115)" mask="url(#path-1-outside-1_170_115)"/>
<g filter="url(#filter0_b_170_115)">
<rect x="21" y="23" width="8" height="8" rx="4" fill="#2962FF"/>
</g>
<g filter="url(#filter1_b_170_115)">
<rect x="33" y="23" width="32" height="8" rx="4" fill="#2962FF"/>
</g>
<g filter="url(#filter2_b_170_115)">
<rect x="231" y="21" width="12" height="12" rx="6" fill="#2962FF"/>
</g>
<g filter="url(#filter3_b_170_115)">
<rect x="21" y="49" width="134" height="8" rx="4" fill="#2962FF" fill-opacity="0.16"/>
</g>
<g filter="url(#filter4_b_170_115)">
<rect x="21" y="65" width="222" height="8" rx="4" fill="white" fill-opacity="0.03"/>
</g>
<g filter="url(#filter5_b_170_115)">
<rect x="21" y="81" width="222" height="8" rx="4" fill="white" fill-opacity="0.03"/>
</g>
<g filter="url(#filter6_b_170_115)">
<rect x="21" y="97" width="169" height="8" rx="4" fill="white" fill-opacity="0.03"/>
</g>
<g opacity="0.6" filter="url(#filter7_f_170_115)">
<rect x="216.875" y="159.095" width="1.33797" height="1.33797" rx="0.668985" transform="rotate(138.383 216.875 159.095)" fill="white"/>
</g>
<g opacity="0.6" filter="url(#filter8_f_170_115)">
<rect x="220.922" y="129.369" width="1.33797" height="1.33797" rx="0.668985" transform="rotate(138.383 220.922 129.369)" fill="white"/>
</g>
<g opacity="0.6" filter="url(#filter9_f_170_115)">
<rect x="225.578" y="119.495" width="1.33797" height="1.33797" rx="0.668985" transform="rotate(-159.61 225.578 119.495)" fill="white"/>
</g>
<g opacity="0.6" filter="url(#filter10_f_170_115)">
<rect width="1.33797" height="1.33797" rx="0.668985" transform="matrix(0.231267 -0.97289 -0.97289 -0.231267 184.527 133.83)" fill="white"/>
</g>
<g opacity="0.3" filter="url(#filter11_f_170_115)">
<rect x="198.902" y="152.272" width="1.33797" height="1.33797" rx="0.668985" transform="rotate(138.383 198.902 152.272)" fill="white"/>
</g>
<g opacity="0.3" filter="url(#filter12_f_170_115)">
<rect x="201.602" y="132.455" width="1.33797" height="1.33797" rx="0.668985" transform="rotate(138.383 201.602 132.455)" fill="white"/>
</g>
<g opacity="0.3" filter="url(#filter13_f_170_115)">
<rect x="204.402" y="107.342" width="1.33797" height="1.33797" rx="0.668985" transform="rotate(-159.61 204.402 107.342)" fill="white"/>
</g>
<g opacity="0.3" filter="url(#filter14_f_170_115)">
<rect width="1.33797" height="1.33797" rx="0.668985" transform="matrix(0.231267 -0.97289 -0.97289 -0.231267 186.141 109.828)" fill="white"/>
</g>
<g opacity="0.3" filter="url(#filter15_f_170_115)">
<rect width="1.33797" height="1.33797" rx="0.668985" transform="matrix(0.231267 -0.97289 -0.97289 -0.231267 197.23 117.335)" fill="white"/>
</g>
<g opacity="0.3" filter="url(#filter16_f_170_115)">
<rect width="1.33797" height="1.33797" rx="0.668985" transform="matrix(0.231267 -0.97289 -0.97289 -0.231267 175.887 140.668)" fill="white"/>
</g>
<g opacity="0.3" filter="url(#filter17_f_170_115)">
<rect width="1.33797" height="1.33797" rx="0.668985" transform="matrix(0.231267 -0.97289 -0.97289 -0.231267 188.316 138.324)" fill="white"/>
</g>
<g opacity="0.3" filter="url(#filter18_f_170_115)">
<rect width="1.33797" height="1.33797" rx="0.668985" transform="matrix(0.231267 -0.97289 -0.97289 -0.231267 210.656 137.328)" fill="white"/>
</g>
<g opacity="0.3" filter="url(#filter19_f_170_115)">
<rect width="1.33797" height="1.33797" rx="0.668985" transform="matrix(0.231267 -0.97289 -0.97289 -0.231267 210.48 153.452)" fill="white"/>
</g>
<g opacity="0.3" filter="url(#filter20_f_170_115)">
<rect width="1.33797" height="1.33797" rx="0.668985" transform="matrix(0.231267 -0.97289 -0.97289 -0.231267 205.969 112.469)" fill="white"/>
</g>
<defs>
<filter id="filter0_b_170_115" x="17" y="19" width="16" height="16" filterUnits="userSpaceOnUse" color-interpolation-filters="sRGB">
<feFlood flood-opacity="0" result="BackgroundImageFix"/>
<feGaussianBlur in="BackgroundImageFix" stdDeviation="2"/>
<feComposite in2="SourceAlpha" operator="in" result="effect1_backgroundBlur_170_115"/>
<feBlend mode="normal" in="SourceGraphic" in2="effect1_backgroundBlur_170_115" result="shape"/>
</filter>
<filter id="filter1_b_170_115" x="29" y="19" width="40" height="16" filterUnits="userSpaceOnUse" color-interpolation-filters="sRGB">
<feFlood flood-opacity="0" result="BackgroundImageFix"/>
<feGaussianBlur in="BackgroundImageFix" stdDeviation="2"/>
<feComposite in2="SourceAlpha" operator="in" result="effect1_backgroundBlur_170_115"/>
<feBlend mode="normal" in="SourceGraphic" in2="effect1_backgroundBlur_170_115" result="shape"/>
</filter>
<filter id="filter2_b_170_115" x="227" y="17" width="20" height="20" filterUnits="userSpaceOnUse" color-interpolation-filters="sRGB">
<feFlood flood-opacity="0" result="BackgroundImageFix"/>
<feGaussianBlur in="BackgroundImageFix" stdDeviation="2"/>
<feComposite in2="SourceAlpha" operator="in" result="effect1_backgroundBlur_170_115"/>
<feBlend mode="normal" in="SourceGraphic" in2="effect1_backgroundBlur_170_115" result="shape"/>
</filter>
<filter id="filter3_b_170_115" x="17" y="45" width="142" height="16" filterUnits="userSpaceOnUse" color-interpolation-filters="sRGB">
<feFlood flood-opacity="0" result="BackgroundImageFix"/>
<feGaussianBlur in="BackgroundImageFix" stdDeviation="2"/>
<feComposite in2="SourceAlpha" operator="in" result="effect1_backgroundBlur_170_115"/>
<feBlend mode="normal" in="SourceGraphic" in2="effect1_backgroundBlur_170_115" result="shape"/>
</filter>
<filter id="filter4_b_170_115" x="17" y="61" width="230" height="16" filterUnits="userSpaceOnUse" color-interpolation-filters="sRGB">
<feFlood flood-opacity="0" result="BackgroundImageFix"/>
<feGaussianBlur in="BackgroundImageFix" stdDeviation="2"/>
<feComposite in2="SourceAlpha" operator="in" result="effect1_backgroundBlur_170_115"/>
<feBlend mode="normal" in="SourceGraphic" in2="effect1_backgroundBlur_170_115" result="shape"/>
</filter>
<filter id="filter5_b_170_115" x="17" y="77" width="230" height="16" filterUnits="userSpaceOnUse" color-interpolation-filters="sRGB">
<feFlood flood-opacity="0" result="BackgroundImageFix"/>
<feGaussianBlur in="BackgroundImageFix" stdDeviation="2"/>
<feComposite in2="SourceAlpha" operator="in" result="effect1_backgroundBlur_170_115"/>
<feBlend mode="normal" in="SourceGraphic" in2="effect1_backgroundBlur_170_115" result="shape"/>
</filter>
<filter id="filter6_b_170_115" x="17" y="93" width="177" height="16" filterUnits="userSpaceOnUse" color-interpolation-filters="sRGB">
<feFlood flood-opacity="0" result="BackgroundImageFix"/>
<feGaussianBlur in="BackgroundImageFix" stdDeviation="2"/>
<feComposite in2="SourceAlpha" operator="in" result="effect1_backgroundBlur_170_115"/>
<feBlend mode="normal" in="SourceGraphic" in2="effect1_backgroundBlur_170_115" result="shape"/>
</filter>
<filter id="filter7_f_170_115" x="213.646" y="156.757" width="4.56656" height="4.56479" filterUnits="userSpaceOnUse" color-interpolation-filters="sRGB">
<feFlood flood-opacity="0" result="BackgroundImageFix"/>
<feBlend mode="normal" in="SourceGraphic" in2="BackgroundImageFix" result="shape"/>
<feGaussianBlur stdDeviation="0.668985" result="effect1_foregroundBlur_170_115"/>
</filter>
<filter id="filter8_f_170_115" x="217.693" y="127.031" width="4.56656" height="4.56479" filterUnits="userSpaceOnUse" color-interpolation-filters="sRGB">
<feFlood flood-opacity="0" result="BackgroundImageFix"/>
<feBlend mode="normal" in="SourceGraphic" in2="BackgroundImageFix" result="shape"/>
<feGaussianBlur stdDeviation="0.668985" result="effect1_foregroundBlur_170_115"/>
</filter>
<filter id="filter9_f_170_115" x="222.986" y="116.437" width="4.39469" height="4.39621" filterUnits="userSpaceOnUse" color-interpolation-filters="sRGB">
<feFlood flood-opacity="0" result="BackgroundImageFix"/>
<feBlend mode="normal" in="SourceGraphic" in2="BackgroundImageFix" result="shape"/>
<feGaussianBlur stdDeviation="0.668985" result="effect1_foregroundBlur_170_115"/>
</filter>
<filter id="filter10_f_170_115" x="181.889" y="130.881" width="4.28531" height="4.28708" filterUnits="userSpaceOnUse" color-interpolation-filters="sRGB">
<feFlood flood-opacity="0" result="BackgroundImageFix"/>
<feBlend mode="normal" in="SourceGraphic" in2="BackgroundImageFix" result="shape"/>
<feGaussianBlur stdDeviation="0.668985" result="effect1_foregroundBlur_170_115"/>
</filter>
<filter id="filter11_f_170_115" x="195.674" y="149.934" width="4.56656" height="4.56479" filterUnits="userSpaceOnUse" color-interpolation-filters="sRGB">
<feFlood flood-opacity="0" result="BackgroundImageFix"/>
<feBlend mode="normal" in="SourceGraphic" in2="BackgroundImageFix" result="shape"/>
<feGaussianBlur stdDeviation="0.668985" result="effect1_foregroundBlur_170_115"/>
</filter>
<filter id="filter12_f_170_115" x="198.373" y="130.117" width="4.56656" height="4.56479" filterUnits="userSpaceOnUse" color-interpolation-filters="sRGB">
<feFlood flood-opacity="0" result="BackgroundImageFix"/>
<feBlend mode="normal" in="SourceGraphic" in2="BackgroundImageFix" result="shape"/>
<feGaussianBlur stdDeviation="0.668985" result="effect1_foregroundBlur_170_115"/>
</filter>
<filter id="filter13_f_170_115" x="201.81" y="104.283" width="4.39469" height="4.39621" filterUnits="userSpaceOnUse" color-interpolation-filters="sRGB">
<feFlood flood-opacity="0" result="BackgroundImageFix"/>
<feBlend mode="normal" in="SourceGraphic" in2="BackgroundImageFix" result="shape"/>
<feGaussianBlur stdDeviation="0.668985" result="effect1_foregroundBlur_170_115"/>
</filter>
<filter id="filter14_f_170_115" x="183.502" y="106.879" width="4.28531" height="4.28708" filterUnits="userSpaceOnUse" color-interpolation-filters="sRGB">
<feFlood flood-opacity="0" result="BackgroundImageFix"/>
<feBlend mode="normal" in="SourceGraphic" in2="BackgroundImageFix" result="shape"/>
<feGaussianBlur stdDeviation="0.668985" result="effect1_foregroundBlur_170_115"/>
</filter>
<filter id="filter15_f_170_115" x="194.592" y="114.385" width="4.28531" height="4.28708" filterUnits="userSpaceOnUse" color-interpolation-filters="sRGB">
<feFlood flood-opacity="0" result="BackgroundImageFix"/>
<feBlend mode="normal" in="SourceGraphic" in2="BackgroundImageFix" result="shape"/>
<feGaussianBlur stdDeviation="0.668985" result="effect1_foregroundBlur_170_115"/>
</filter>
<filter id="filter16_f_170_115" x="173.248" y="137.719" width="4.28531" height="4.28708" filterUnits="userSpaceOnUse" color-interpolation-filters="sRGB">
<feFlood flood-opacity="0" result="BackgroundImageFix"/>
<feBlend mode="normal" in="SourceGraphic" in2="BackgroundImageFix" result="shape"/>
<feGaussianBlur stdDeviation="0.668985" result="effect1_foregroundBlur_170_115"/>
</filter>
<filter id="filter17_f_170_115" x="185.678" y="135.375" width="4.28531" height="4.28708" filterUnits="userSpaceOnUse" color-interpolation-filters="sRGB">
<feFlood flood-opacity="0" result="BackgroundImageFix"/>
<feBlend mode="normal" in="SourceGraphic" in2="BackgroundImageFix" result="shape"/>
<feGaussianBlur stdDeviation="0.668985" result="effect1_foregroundBlur_170_115"/>
</filter>
<filter id="filter18_f_170_115" x="208.017" y="134.379" width="4.28531" height="4.28708" filterUnits="userSpaceOnUse" color-interpolation-filters="sRGB">
<feFlood flood-opacity="0" result="BackgroundImageFix"/>
<feBlend mode="normal" in="SourceGraphic" in2="BackgroundImageFix" result="shape"/>
<feGaussianBlur stdDeviation="0.668985" result="effect1_foregroundBlur_170_115"/>
</filter>
<filter id="filter19_f_170_115" x="207.842" y="150.503" width="4.28531" height="4.28708" filterUnits="userSpaceOnUse" color-interpolation-filters="sRGB">
<feFlood flood-opacity="0" result="BackgroundImageFix"/>
<feBlend mode="normal" in="SourceGraphic" in2="BackgroundImageFix" result="shape"/>
<feGaussianBlur stdDeviation="0.668985" result="effect1_foregroundBlur_170_115"/>
</filter>
<filter id="filter20_f_170_115" x="203.33" y="109.52" width="4.28531" height="4.28708" filterUnits="userSpaceOnUse" color-interpolation-filters="sRGB">
<feFlood flood-opacity="0" result="BackgroundImageFix"/>
<feBlend mode="normal" in="SourceGraphic" in2="BackgroundImageFix" result="shape"/>
<feGaussianBlur stdDeviation="0.668985" result="effect1_foregroundBlur_170_115"/>
</filter>
<linearGradient id="paint0_linear_170_115" x1="132" y1="1" x2="132" y2="187" gradientUnits="userSpaceOnUse">
<stop stop-color="#2962FF"/>
<stop offset="1" stop-color="#2962FF" stop-opacity="0"/>
</linearGradient>
<linearGradient id="paint1_linear_170_115" x1="132" y1="1" x2="132" y2="187" gradientUnits="userSpaceOnUse">
<stop stop-color="#2962FF"/>
<stop offset="1" stop-color="#2962FF" stop-opacity="0"/>
</linearGradient>
</defs>
</svg>
