<svg width="47" height="157" viewBox="0 0 47 157" fill="none" xmlns="http://www.w3.org/2000/svg">
<g opacity="0.1">
<g opacity="0.01" clip-path="url(#clip0_1_27515)">
<path d="M13.2598 152.253L11.2246 150.215L22.3164 139.12C22.4941 138.941 22.7055 138.799 22.9383 138.702C23.1711 138.605 23.4207 138.555 23.6729 138.555C23.925 138.555 24.1747 138.605 24.4075 138.702C24.6403 138.799 24.8516 138.941 25.0294 139.12L36.127 150.215L34.0918 152.251L23.6758 141.837L13.2598 152.253Z" fill="#2962FF"/>
</g>
<g opacity="0.02" clip-path="url(#clip1_1_27515)">
<path d="M13.2598 135.613L11.2246 133.576L22.3164 122.48C22.4941 122.301 22.7055 122.159 22.9383 122.062C23.1711 121.965 23.4207 121.916 23.6729 121.916C23.925 121.916 24.1747 121.965 24.4075 122.062C24.6403 122.159 24.8516 122.301 25.0294 122.48L36.127 133.576L34.0918 135.611L23.6758 125.197L13.2598 135.613Z" fill="#2962FF"/>
</g>
<g opacity="0.05" clip-path="url(#clip2_1_27515)">
<path d="M13.2598 118.973L11.2246 116.935L22.3164 105.84C22.4941 105.661 22.7055 105.519 22.9383 105.422C23.1711 105.325 23.4207 105.275 23.6729 105.275C23.925 105.275 24.1747 105.325 24.4075 105.422C24.6403 105.519 24.8516 105.661 25.0294 105.84L36.127 116.935L34.0918 118.971L23.6758 108.557L13.2598 118.973Z" fill="#2962FF"/>
</g>
<g opacity="0.1" clip-path="url(#clip3_1_27515)">
<path d="M13.2598 102.333L11.2246 100.296L22.3164 89.1999C22.4941 89.021 22.7055 88.8791 22.9383 88.7822C23.1711 88.6854 23.4207 88.6355 23.6729 88.6355C23.925 88.6355 24.1747 88.6854 24.4075 88.7822C24.6403 88.8791 24.8516 89.021 25.0294 89.1999L36.127 100.296L34.0918 102.331L23.6758 91.9167L13.2598 102.333Z" fill="#2962FF"/>
</g>
<g opacity="0.2" clip-path="url(#clip4_1_27515)">
<path d="M13.2598 85.6925L11.2246 83.6554L22.3164 72.5597C22.4941 72.3809 22.7055 72.2389 22.9383 72.1421C23.1711 72.0452 23.4207 71.9954 23.6729 71.9954C23.925 71.9954 24.1747 72.0452 24.4075 72.1421C24.6403 72.2389 24.8516 72.3809 25.0294 72.5597L36.127 83.6554L34.0918 85.6906L23.6758 75.2765L13.2598 85.6925Z" fill="#2962FF"/>
</g>
<g opacity="0.4" clip-path="url(#clip5_1_27515)">
<path d="M13.2598 69.0527L11.2246 67.0155L22.3164 55.9199C22.4941 55.741 22.7055 55.5991 22.9383 55.5022C23.1711 55.4053 23.4207 55.3555 23.6729 55.3555C23.925 55.3555 24.1747 55.4053 24.4075 55.5022C24.6403 55.5991 24.8516 55.741 25.0294 55.9199L36.127 67.0155L34.0918 69.0507L23.6758 58.6367L13.2598 69.0527Z" fill="#2962FF"/>
</g>
<g opacity="0.6" clip-path="url(#clip6_1_27515)">
<path d="M13.2598 52.4125L11.2246 50.3754L22.3164 39.2797C22.4941 39.1009 22.7055 38.9589 22.9383 38.8621C23.1711 38.7652 23.4207 38.7153 23.6729 38.7153C23.925 38.7153 24.1747 38.7652 24.4075 38.8621C24.6403 38.9589 24.8516 39.1009 25.0294 39.2797L36.127 50.3754L34.0918 52.4106L23.6758 41.9965L13.2598 52.4125Z" fill="#2962FF"/>
</g>
<g opacity="0.8" clip-path="url(#clip7_1_27515)">
<path d="M13.2598 35.7726L11.2246 33.7355L22.3164 22.6398C22.4941 22.461 22.7055 22.319 22.9383 22.2222C23.1711 22.1253 23.4207 22.0754 23.6729 22.0754C23.925 22.0754 24.1747 22.1253 24.4075 22.2222C24.6403 22.319 24.8516 22.461 25.0294 22.6398L36.127 33.7355L34.0918 35.7707L23.6758 25.3566L13.2598 35.7726Z" fill="#2962FF"/>
</g>
<g clip-path="url(#clip8_1_27515)">
<path d="M13.2598 19.1322L11.2246 17.0951L22.3164 5.99944C22.4941 5.82059 22.7055 5.67864 22.9383 5.58178C23.1711 5.48492 23.4207 5.43506 23.6729 5.43506C23.925 5.43506 24.1747 5.48492 24.4075 5.58178C24.6403 5.67864 24.8516 5.82059 25.0294 5.99944L36.127 17.0951L34.0918 19.1303L23.6758 8.71624L13.2598 19.1322Z" fill="#2962FF"/>
</g>
</g>
<defs>
<clipPath id="clip0_1_27515">
<rect width="23.04" height="46.08" fill="white" transform="translate(0.626953 156.96) rotate(-90)"/>
</clipPath>
<clipPath id="clip1_1_27515">
<rect width="23.04" height="46.08" fill="white" transform="translate(0.626953 140.32) rotate(-90)"/>
</clipPath>
<clipPath id="clip2_1_27515">
<rect width="23.04" height="46.08" fill="white" transform="translate(0.626953 123.68) rotate(-90)"/>
</clipPath>
<clipPath id="clip3_1_27515">
<rect width="23.04" height="46.08" fill="white" transform="translate(0.626953 107.04) rotate(-90)"/>
</clipPath>
<clipPath id="clip4_1_27515">
<rect width="23.04" height="46.08" fill="white" transform="translate(0.626953 90.3999) rotate(-90)"/>
</clipPath>
<clipPath id="clip5_1_27515">
<rect width="23.04" height="46.08" fill="white" transform="translate(0.626953 73.76) rotate(-90)"/>
</clipPath>
<clipPath id="clip6_1_27515">
<rect width="23.04" height="46.08" fill="white" transform="translate(0.626953 57.1199) rotate(-90)"/>
</clipPath>
<clipPath id="clip7_1_27515">
<rect width="23.04" height="46.08" fill="white" transform="translate(0.626953 40.48) rotate(-90)"/>
</clipPath>
<clipPath id="clip8_1_27515">
<rect width="23.04" height="46.08" fill="white" transform="translate(0.626953 23.8398) rotate(-90)"/>
</clipPath>
</defs>
</svg>
