<svg width="25" height="24" viewBox="0 0 25 24" fill="none" xmlns="http://www.w3.org/2000/svg">
<g clip-path="url(#clip0_31_30)">
<path d="M18.875 0L6.125 0C3.0184 0 0.5 2.5184 0.5 5.625L0.5 18.375C0.5 21.4816 3.0184 24 6.125 24H18.875C21.9816 24 24.5 21.4816 24.5 18.375V5.625C24.5 2.5184 21.9816 0 18.875 0Z" fill="white"/>
<path d="M18.875 0H6.125C3.0184 0 0.5 2.5184 0.5 5.625V18.375C0.5 21.4816 3.0184 24 6.125 24H18.875C21.9816 24 24.5 21.4816 24.5 18.375V5.625C24.5 2.5184 21.9816 0 18.875 0Z" fill="#0A66C2"/>
<path d="M17.817 20.4075H20.5611C20.6605 20.4075 20.7559 20.368 20.8262 20.2977C20.8965 20.2274 20.9361 20.132 20.9361 20.0326L20.9375 14.2349C20.9375 11.2046 20.2845 8.87539 16.7433 8.87539C15.3972 8.82532 14.1277 9.51926 13.4427 10.678C13.4393 10.6836 13.4342 10.688 13.4281 10.6905C13.4221 10.6929 13.4154 10.6933 13.409 10.6916C13.4027 10.6899 13.3971 10.6862 13.3931 10.681C13.3891 10.6758 13.3869 10.6695 13.3869 10.6629V9.53014C13.3869 9.43068 13.3474 9.3353 13.277 9.26497C13.2067 9.19465 13.1113 9.15514 13.0119 9.15514H10.4078C10.3083 9.15514 10.2129 9.19465 10.1426 9.26497C10.0723 9.3353 10.0328 9.43068 10.0328 9.53014V20.032C10.0328 20.1315 10.0723 20.2269 10.1426 20.2972C10.2129 20.3675 10.3083 20.407 10.4078 20.407H13.1517C13.2511 20.407 13.3465 20.3675 13.4168 20.2972C13.4871 20.2269 13.5267 20.1315 13.5267 20.032L13.5267 14.8408C13.5267 13.3729 13.8051 11.9514 15.6249 11.9514C17.4188 11.9514 17.442 13.631 17.442 14.9359V20.0325C17.442 20.1319 17.4815 20.2273 17.5519 20.2976C17.6222 20.368 17.7176 20.4075 17.817 20.4075ZM4.0625 5.58964C4.0625 6.70189 4.97816 7.61707 6.0905 7.61707C7.20256 7.61698 8.11766 6.70123 8.11766 5.58917C8.11747 4.47711 7.20228 3.56201 6.09012 3.56201C4.97769 3.56201 4.0625 4.47739 4.0625 5.58964ZM4.71491 20.4075H7.46244C7.56189 20.4075 7.65728 20.368 7.7276 20.2976C7.79793 20.2273 7.83744 20.1319 7.83744 20.0325L7.83744 9.53014C7.83744 9.43068 7.79793 9.3353 7.7276 9.26497C7.65728 9.19465 7.56189 9.15514 7.46244 9.15514H4.71491C4.61545 9.15514 4.52007 9.19465 4.44974 9.26497C4.37942 9.3353 4.33991 9.43068 4.33991 9.53014L4.33991 20.0325C4.33991 20.1319 4.37942 20.2273 4.44974 20.2976C4.52007 20.368 4.61545 20.4075 4.71491 20.4075Z" fill="white"/>
</g>
<defs>
<clipPath id="clip0_31_30">
<rect width="24" height="24" fill="white" transform="translate(0.5)"/>
</clipPath>
</defs>
</svg>
