<svg width="33" height="33" viewBox="0 0 33 33" fill="none" xmlns="http://www.w3.org/2000/svg">
<g clip-path="url(#clip0_30_26)">
<path d="M32.8555 16.8564C32.8555 8.01995 25.692 0.856445 16.8555 0.856445C8.01897 0.856445 0.855469 8.01995 0.855469 16.8564C0.855469 24.8424 6.70647 31.4618 14.3555 32.6621V21.4814H10.293V16.8564H14.3555L14.3555 13.3314C14.3555 9.32145 16.7442 7.10645 20.399 7.10645C22.1495 7.10645 23.9805 7.41895 23.9805 7.41895V11.3564H21.963C19.9753 11.3564 19.3555 12.5898 19.3555 13.8552V16.8564H23.793L23.0836 21.4814H19.3555V32.6621C27.0045 31.4618 32.8555 24.8426 32.8555 16.8564Z" fill="#1877F2"/>
<path d="M23.0836 21.481L23.793 16.856H19.3555V13.8547C19.3555 12.5892 19.9753 11.356 21.963 11.356H23.9805V7.41846C23.9805 7.41846 22.1495 7.10596 20.3988 7.10596C16.7442 7.10596 14.3555 9.32096 14.3555 13.331V16.856H10.293V21.481H14.3555L14.3555 32.6616C15.1825 32.7912 16.0184 32.8562 16.8555 32.856C17.6926 32.8562 18.5284 32.7912 19.3555 32.6616V21.481H23.0836Z" fill="white"/>
</g>
<defs>
<clipPath id="clip0_30_26">
<rect width="32" height="32" fill="white" transform="translate(0.855469 0.856445)"/>
</clipPath>
</defs>
</svg>
