<svg width="27" height="28" viewBox="0 0 27 28" fill="none" xmlns="http://www.w3.org/2000/svg">
<path d="M7.79974 0.666504H18.9997C23.2664 0.666504 26.7331 4.13317 26.7331 8.39984V19.5998C26.7331 21.6508 25.9183 23.6178 24.468 25.0681C23.0178 26.5184 21.0507 27.3332 18.9997 27.3332H7.79974C3.53307 27.3332 0.0664062 23.8665 0.0664062 19.5998V8.39984C0.0664063 6.34883 0.881166 4.38183 2.33145 2.93154C3.78173 1.48126 5.74873 0.666504 7.79974 0.666504ZM7.53307 3.33317C6.26003 3.33317 5.03913 3.83888 4.13896 4.73906C3.23879 5.63923 2.73307 6.86013 2.73307 8.13317V19.8665C2.73307 22.5198 4.87974 24.6665 7.53307 24.6665H19.2664C20.5394 24.6665 21.7603 24.1608 22.6605 23.2606C23.5607 22.3604 24.0664 21.1395 24.0664 19.8665V8.13317C24.0664 5.47984 21.9197 3.33317 19.2664 3.33317H7.53307ZM20.3997 5.33317C20.8418 5.33317 21.2657 5.50877 21.5783 5.82133C21.8908 6.13389 22.0664 6.55781 22.0664 6.99984C22.0664 7.44186 21.8908 7.86579 21.5783 8.17835C21.2657 8.49091 20.8418 8.6665 20.3997 8.6665C19.9577 8.6665 19.5338 8.49091 19.2212 8.17835C18.9087 7.86579 18.7331 7.44186 18.7331 6.99984C18.7331 6.55781 18.9087 6.13389 19.2212 5.82133C19.5338 5.50877 19.9577 5.33317 20.3997 5.33317ZM13.3997 7.33317C15.1678 7.33317 16.8635 8.03555 18.1138 9.28579C19.364 10.536 20.0664 12.2317 20.0664 13.9998C20.0664 15.7679 19.364 17.4636 18.1138 18.7139C16.8635 19.9641 15.1678 20.6665 13.3997 20.6665C11.6316 20.6665 9.93594 19.9641 8.68569 18.7139C7.43545 17.4636 6.73307 15.7679 6.73307 13.9998C6.73307 12.2317 7.43545 10.536 8.68569 9.28579C9.93594 8.03555 11.6316 7.33317 13.3997 7.33317ZM13.3997 9.99984C12.3389 9.99984 11.3215 10.4213 10.5713 11.1714C9.82117 11.9216 9.39974 12.939 9.39974 13.9998C9.39974 15.0607 9.82117 16.0781 10.5713 16.8283C11.3215 17.5784 12.3389 17.9998 13.3997 17.9998C14.4606 17.9998 15.478 17.5784 16.2282 16.8283C16.9783 16.0781 17.3997 15.0607 17.3997 13.9998C17.3997 12.939 16.9783 11.9216 16.2282 11.1714C15.478 10.4213 14.4606 9.99984 13.3997 9.99984Z" fill="white"/>
</svg>
