<svg width="25" height="24" viewBox="0 0 25 24" fill="none" xmlns="http://www.w3.org/2000/svg">
<path d="M21.7318 0C22.439 0 23.1173 0.280951 23.6174 0.781048C24.1175 1.28115 24.3984 1.95942 24.3984 2.66667V21.3333C24.3984 22.0406 24.1175 22.7189 23.6174 23.219C23.1173 23.719 22.439 24 21.7318 24H3.0651C2.35786 24 1.67958 23.719 1.17949 23.219C0.679389 22.7189 0.398438 22.0406 0.398438 21.3333V2.66667C0.398438 1.95942 0.679389 1.28115 1.17949 0.781048C1.67958 0.280951 2.35786 0 3.0651 0H21.7318ZM21.0651 20.6667V13.6C21.0651 12.4472 20.6072 11.3416 19.792 10.5264C18.9768 9.71128 17.8712 9.25333 16.7184 9.25333C15.5851 9.25333 14.2651 9.94667 13.6251 10.9867V9.50667H9.9051V20.6667H13.6251V14.0933C13.6251 13.0667 14.4518 12.2267 15.4784 12.2267C15.9735 12.2267 16.4483 12.4233 16.7984 12.7734C17.1484 13.1235 17.3451 13.5983 17.3451 14.0933V20.6667H21.0651ZM5.57177 7.41333C6.16586 7.41333 6.73561 7.17733 7.15569 6.75725C7.57577 6.33717 7.81177 5.76742 7.81177 5.17333C7.81177 3.93333 6.81177 2.92 5.57177 2.92C4.97415 2.92 4.40101 3.1574 3.97842 3.57999C3.55584 4.00257 3.31844 4.57571 3.31844 5.17333C3.31844 6.41333 4.33177 7.41333 5.57177 7.41333ZM7.42511 20.6667V9.50667H3.73177V20.6667H7.42511Z" fill="white"/>
</svg>
