<svg width="27" height="20" viewBox="0 0 27 20" fill="none" xmlns="http://www.w3.org/2000/svg">
<path d="M10.7331 13.9998L17.6531 9.99984L10.7331 5.99984V13.9998ZM26.1464 3.55984C26.3197 4.1865 26.4397 5.0265 26.5197 6.09317C26.6131 7.15984 26.6531 8.07984 26.6531 8.87984L26.7331 9.99984C26.7331 12.9198 26.5197 15.0665 26.1464 16.4398C25.8131 17.6398 25.0397 18.4132 23.8397 18.7465C23.2131 18.9198 22.0664 19.0398 20.3064 19.1198C18.5731 19.2132 16.9864 19.2532 15.5197 19.2532L13.3997 19.3332C7.81307 19.3332 4.33307 19.1198 2.95974 18.7465C1.75974 18.4132 0.986406 17.6398 0.653073 16.4398C0.47974 15.8132 0.35974 14.9732 0.27974 13.9065C0.186406 12.8398 0.146406 11.9198 0.146406 11.1198L0.0664062 9.99984C0.0664062 7.07984 0.27974 4.93317 0.653073 3.55984C0.986406 2.35984 1.75974 1.5865 2.95974 1.25317C3.58641 1.07984 4.73307 0.959837 6.49307 0.879837C8.22641 0.786504 9.81307 0.746504 11.2797 0.746504L13.3997 0.666504C18.9864 0.666504 22.4664 0.879837 23.8397 1.25317C25.0397 1.5865 25.8131 2.35984 26.1464 3.55984Z" fill="white"/>
</svg>
