<svg width="61" height="61" viewBox="0 0 61 61" fill="none" xmlns="http://www.w3.org/2000/svg">
<path d="M46.8848 0.85498H15.0098C7.24326 0.85498 0.947266 7.15098 0.947266 14.9175V46.7925C0.947266 54.559 7.24326 60.855 15.0098 60.855H46.8848C54.6513 60.855 60.9473 54.559 60.9473 46.7925V14.9175C60.9473 7.15098 54.6513 0.85498 46.8848 0.85498Z" fill="url(#paint0_radial_1_27909)"/>
<path d="M46.8848 0.85498H15.0098C7.24326 0.85498 0.947266 7.15098 0.947266 14.9175V46.7925C0.947266 54.559 7.24326 60.855 15.0098 60.855H46.8848C54.6513 60.855 60.9473 54.559 60.9473 46.7925V14.9175C60.9473 7.15098 54.6513 0.85498 46.8848 0.85498Z" fill="url(#paint1_radial_1_27909)"/>
<path d="M30.9494 7.41748C24.5842 7.41748 23.7852 7.44537 21.2854 7.55904C18.7902 7.67342 17.087 8.06834 15.5969 8.64795C14.0552 9.24654 12.7476 10.0474 11.4449 11.3505C10.1411 12.6534 9.34023 13.961 8.73977 15.502C8.15852 16.9926 7.76312 18.6965 7.65086 21.1905C7.53906 23.6906 7.50977 24.4898 7.50977 30.8552C7.50977 37.2206 7.53789 38.017 7.65133 40.5169C7.76617 43.012 8.16109 44.7152 8.74023 46.2054C9.3393 47.7471 10.1402 49.0547 11.4433 50.3573C12.7457 51.6612 14.0533 52.4639 15.5938 53.0625C17.0852 53.6421 18.7886 54.037 21.2833 54.1514C23.7834 54.2651 24.5816 54.2929 30.9466 54.2929C37.3124 54.2929 38.1088 54.2651 40.6087 54.1514C43.1038 54.037 44.8089 53.6421 46.3002 53.0625C47.8412 52.4639 49.1469 51.6612 50.4491 50.3573C51.753 49.0547 52.5536 47.7471 53.1543 46.2061C53.7304 44.7152 54.126 43.0115 54.2432 40.5173C54.3555 38.0175 54.3848 37.2206 54.3848 30.8552C54.3848 24.4898 54.3555 23.6911 54.2432 21.191C54.126 18.6958 53.7304 16.9929 53.1543 15.5027C52.5536 13.961 51.753 12.6534 50.4491 11.3505C49.1455 10.0469 47.8417 9.24607 46.2988 8.64818C44.8047 8.06834 43.1005 7.67318 40.6054 7.55904C38.1053 7.44537 37.3094 7.41748 30.9421 7.41748H30.9494ZM28.8468 11.6412C29.4709 11.6402 30.1673 11.6412 30.9494 11.6412C37.2074 11.6412 37.949 11.6637 40.4202 11.7759C42.7054 11.8804 43.9457 12.2622 44.7719 12.5831C45.8657 13.0078 46.6455 13.5157 47.4653 14.3362C48.2856 15.1565 48.7933 15.9377 49.2191 17.0315C49.54 17.8565 49.9223 19.0969 50.0263 21.382C50.1386 23.8528 50.163 24.5948 50.163 30.8498C50.163 37.1048 50.1386 37.8471 50.0263 40.3176C49.9218 42.6028 49.54 43.8431 49.2191 44.6683C48.7945 45.7622 48.2856 46.541 47.4653 47.3608C46.645 48.1812 45.8662 48.6888 44.7719 49.1137C43.9466 49.436 42.7054 49.8169 40.4202 49.9214C37.9495 50.0337 37.2074 50.058 30.9494 50.058C24.6911 50.058 23.9493 50.0337 21.4787 49.9214C19.1936 49.8159 17.9533 49.4341 17.1264 49.1133C16.0328 48.6883 15.2514 48.1807 14.4311 47.3604C13.6108 46.5401 13.1031 45.7608 12.6773 44.6665C12.3564 43.8412 11.9741 42.6009 11.8701 40.3158C11.7578 37.845 11.7353 37.1029 11.7353 30.844C11.7353 24.585 11.7578 23.8469 11.8701 21.3762C11.9746 19.091 12.3564 17.8507 12.6773 17.0245C13.1022 15.9307 13.6108 15.1495 14.4313 14.3292C15.2519 13.5089 16.0328 13.001 17.1266 12.5754C17.9528 12.2531 19.1936 11.8722 21.4787 11.7672C23.6409 11.6695 24.4788 11.6402 28.8468 11.6353V11.6412ZM43.4603 15.5327C41.9076 15.5327 40.6478 16.7913 40.6478 18.3443C40.6478 19.897 41.9076 21.1568 43.4603 21.1568C45.0131 21.1568 46.2728 19.897 46.2728 18.3443C46.2728 16.7915 45.0131 15.5318 43.4603 15.5318V15.5327ZM30.9494 18.8189C24.3025 18.8189 18.9133 24.2081 18.9133 30.8552C18.9133 37.5023 24.3025 42.889 30.9494 42.889C37.5965 42.889 42.9838 37.5023 42.9838 30.8552C42.9838 24.2083 37.596 18.8189 30.9489 18.8189H30.9494ZM30.9494 23.0426C35.264 23.0426 38.762 26.5401 38.762 30.8552C38.762 35.1698 35.264 38.6679 30.9494 38.6679C26.6348 38.6679 23.137 35.1698 23.137 30.8552C23.137 26.5401 26.6345 23.0426 30.9494 23.0426Z" fill="white"/>
<defs>
<radialGradient id="paint0_radial_1_27909" cx="0" cy="0" r="1" gradientUnits="userSpaceOnUse" gradientTransform="translate(16.8848 65.4761) rotate(-90) scale(59.4645 55.3066)">
<stop stop-color="#FFDD55"/>
<stop offset="0.1" stop-color="#FFDD55"/>
<stop offset="0.5" stop-color="#FF543E"/>
<stop offset="1" stop-color="#C837AB"/>
</radialGradient>
<radialGradient id="paint1_radial_1_27909" cx="0" cy="0" r="1" gradientUnits="userSpaceOnUse" gradientTransform="translate(-9.10297 5.17709) rotate(78.681) scale(26.5809 109.567)">
<stop stop-color="#3771C8"/>
<stop offset="0.128" stop-color="#3771C8"/>
<stop offset="1" stop-color="#6600FF" stop-opacity="0"/>
</radialGradient>
</defs>
</svg>
